<svg id="visual" viewBox="0 0 1280 720" width="1280" height="720" xmlns="http://www.w3.org/2000/svg" xmlns:xlink="http://www.w3.org/1999/xlink" version="1.1"><rect x="0" y="0" width="1280" height="720" fill="#140021"></rect><path d="M0 363L183 363L183 335L366 335L366 399L549 399L549 447L731 447L731 385L914 385L914 316L1097 316L1097 399L1280 399L1280 449L1280 721L1280 721L1097 721L1097 721L914 721L914 721L731 721L731 721L549 721L549 721L366 721L366 721L183 721L183 721L0 721Z" fill="#9900ff"></path><path d="M0 432L183 432L183 430L366 430L366 523L549 523L549 449L731 449L731 473L914 473L914 436L1097 436L1097 507L1280 507L1280 429L1280 721L1280 721L1097 721L1097 721L914 721L914 721L731 721L731 721L549 721L549 721L366 721L366 721L183 721L183 721L0 721Z" fill="#7700c6"></path><path d="M0 549L183 549L183 638L366 638L366 598L549 598L549 578L731 578L731 563L914 563L914 580L1097 580L1097 644L1280 644L1280 607L1280 721L1280 721L1097 721L1097 721L914 721L914 721L731 721L731 721L549 721L549 721L366 721L366 721L183 721L183 721L0 721Z" fill="#560090"></path></svg>